<svg width="178" height="20" viewBox="0 0 178 20" fill="none" xmlns="http://www.w3.org/2000/svg">
<path opacity="0.968" fill-rule="evenodd" clip-rule="evenodd" d="M9.34166 0.00794916C9.90656 -0.0279461 10.4504 0.0577243 10.9735 0.264983C14.9608 2.19754 18.9475 4.13461 22.933 6.07617C24.2182 6.91884 24.7435 8.10716 24.509 9.64112C24.4359 10.0231 24.3018 10.3807 24.1066 10.714C24.0916 10.7437 24.0916 10.7736 24.1066 10.8034C24.8584 11.7028 25.4322 12.7085 25.8279 13.8207C26.1136 14.6713 26.1583 15.5355 25.962 16.4134C25.6513 17.3273 25.0739 18.0164 24.2296 18.4808C23.4326 18.8831 22.5906 19.1364 21.7035 19.2408C20.8852 19.3235 20.0654 19.3384 19.2446 19.2855C18.0209 19.186 16.8138 18.9848 15.6232 18.682C14.8866 18.484 14.1601 18.2567 13.4437 18.0003C12.8873 18.3548 12.3322 18.7124 11.7783 19.0731C10.9442 19.576 10.0501 19.7139 9.09577 19.4866C7.82538 19.1031 7.01705 18.2723 6.67034 16.9945C6.63547 16.8249 6.61311 16.6534 6.60328 16.4804C6.58517 15.8547 6.57019 15.2289 6.55857 14.603C6.55432 14.5566 6.54314 14.5119 6.52504 14.4689C6.16334 14.2173 5.80568 13.9603 5.45203 13.6978C4.41189 12.8816 3.43949 11.9839 2.53481 11.0045C2.52743 10.9822 2.51983 10.9598 2.51246 10.9375C1.68647 10.0464 1.01584 9.04806 0.500579 7.94246C0.292237 7.4444 0.143135 6.93033 0.0534946 6.40026C-0.18033 4.83893 0.35237 3.62828 1.65182 2.76827C2.28824 2.40931 2.96647 2.15601 3.68605 2.00834C4.64929 1.82594 5.6217 1.77006 6.60328 1.84071C6.70163 1.72614 6.78367 1.59948 6.84917 1.46075C7.46749 0.615822 8.29839 0.131549 9.34166 0.00794916ZM9.45344 1.86306C9.61059 1.85812 9.76707 1.86559 9.92287 1.88541C10.0718 1.94127 10.2209 1.99714 10.37 2.05304C14.2075 3.92798 18.0486 5.79427 21.8935 7.6519C22.4788 7.98783 22.747 8.49446 22.6983 9.17175C22.6364 9.60138 22.4314 9.9441 22.0836 10.1999C19.5048 11.8548 16.9264 13.5088 14.349 15.1618C14.3226 15.1844 14.3003 15.2105 14.2819 15.24C14.2893 15.2512 14.2969 15.2623 14.3043 15.2735C15.0395 15.5466 15.7846 15.785 16.5397 15.9887C18.7385 14.599 20.9292 13.1946 23.1119 11.7756C23.2699 11.6669 23.419 11.5477 23.5589 11.418C23.6066 11.348 23.6624 11.2847 23.7266 11.228C24.2647 11.9759 24.6297 12.8028 24.8219 13.709C24.9923 14.8079 24.6458 15.6982 23.7825 16.3799C23.0911 16.8394 22.331 17.115 21.5023 17.2068C20.3518 17.3244 19.2043 17.2983 18.0598 17.1286C16.58 16.8705 15.1345 16.4868 13.7231 15.9776C11.1859 15.0112 8.83132 13.726 6.65916 12.1221C6.28406 11.8107 5.90404 11.5015 5.5191 11.1945C5.34049 11.0011 5.1469 10.8223 4.93789 10.6581C4.53037 10.2656 4.13917 9.85957 3.76429 9.43996C3.26781 8.83189 2.82452 8.18743 2.43422 7.50662C2.18161 7.00221 1.9916 6.47697 1.86418 5.9309C1.663 4.53008 2.18474 3.50195 3.42898 2.84649C4.39423 2.43169 5.40375 2.2417 6.45797 2.27655C6.31401 2.71505 6.25433 3.1658 6.27914 3.62877C6.34508 6.0323 6.40835 8.43874 6.46915 10.8481C6.84403 11.1597 7.22763 11.4577 7.62039 11.7421C7.81644 11.8739 8.01025 12.0117 8.2016 12.1556C8.25234 12.1806 8.30443 12.1992 8.35808 12.2115C8.30465 9.26753 8.22999 6.32467 8.13454 3.38291C8.2092 2.55596 8.64891 2.04933 9.45344 1.86306ZM8.4475 15.6758C8.85188 15.9164 9.26186 16.1473 9.67698 16.3687C10.2032 16.6356 10.7323 16.8964 11.2641 17.151C11.0962 17.2701 10.9248 17.3856 10.75 17.4974C9.98792 17.8984 9.3211 17.7754 8.74928 17.1286C8.69049 17.0247 8.6308 16.9205 8.57045 16.8157C8.52998 16.6914 8.50025 16.5649 8.48103 16.4357C8.47343 16.1821 8.46225 15.9288 8.4475 15.6758Z" fill="white"/>
<path d="M41.8053 5.82625C41.7272 5.09514 41.3979 4.52589 40.8175 4.11848C40.2426 3.71107 39.4948 3.50736 38.5739 3.50736C37.9265 3.50736 37.3712 3.60503 36.908 3.80036C36.4448 3.9957 36.0904 4.26079 35.8448 4.59565C35.5993 4.9305 35.4737 5.3128 35.4681 5.74253C35.4681 6.09971 35.549 6.40945 35.7109 6.67176C35.8783 6.93406 36.1044 7.1573 36.389 7.34147C36.6736 7.52006 36.9889 7.67075 37.335 7.79353C37.681 7.91631 38.0298 8.01956 38.3814 8.10327L39.9887 8.5051C40.6361 8.65578 41.2584 8.85949 41.8555 9.11621C42.4583 9.37293 42.9968 9.69663 43.4712 10.0873C43.9512 10.478 44.3307 10.9496 44.6097 11.5021C44.8888 12.0546 45.0283 12.702 45.0283 13.4442C45.0283 14.4488 44.7716 15.3334 44.2581 16.098C43.7447 16.857 43.0024 17.4514 42.0313 17.8811C41.0658 18.3052 39.8966 18.5173 38.5237 18.5173C37.1898 18.5173 36.0318 18.3108 35.0496 17.8978C34.0729 17.4848 33.3083 16.8821 32.7558 16.0896C32.2089 15.2971 31.9131 14.3316 31.8684 13.1931H34.924C34.9686 13.7903 35.1528 14.287 35.4765 14.6832C35.8002 15.0794 36.2216 15.3752 36.7406 15.5706C37.2652 15.7659 37.8512 15.8636 38.4986 15.8636C39.1739 15.8636 39.7655 15.7631 40.2733 15.5622C40.7868 15.3557 41.1886 15.0711 41.4788 14.7083C41.769 14.34 41.9169 13.9102 41.9225 13.4191C41.9169 12.9726 41.7858 12.6043 41.529 12.3141C41.2723 12.0183 40.9123 11.7727 40.4491 11.5774C39.9915 11.3765 39.4557 11.1979 38.8418 11.0416L36.8913 10.5394C35.4793 10.1766 34.3631 9.62687 33.5427 8.89018C32.7279 8.14792 32.3205 7.16288 32.3205 5.93507C32.3205 4.92492 32.5939 4.04034 33.1409 3.28133C33.6934 2.52233 34.444 1.93354 35.3928 1.51497C36.3415 1.09081 37.4159 0.878738 38.6158 0.878738C39.8324 0.878738 40.8984 1.09081 41.8137 1.51497C42.7345 1.93354 43.4572 2.51675 43.9819 3.26459C44.5065 4.00686 44.7771 4.86074 44.7939 5.82625H41.8053ZM53.3768 5.3993V7.7433H45.9849V5.3993H53.3768ZM47.8099 2.31862H50.8403V14.3902C50.8403 14.7976 50.9017 15.1101 51.0245 15.3278C51.1528 15.5399 51.3203 15.685 51.5268 15.7631C51.7333 15.8412 51.9621 15.8803 52.2132 15.8803C52.403 15.8803 52.576 15.8664 52.7322 15.8385C52.8941 15.8106 53.0169 15.7854 53.1006 15.7631L53.6112 18.1322C53.4494 18.188 53.2178 18.2494 52.9164 18.3164C52.6206 18.3834 52.2579 18.4224 51.8281 18.4336C51.0691 18.4559 50.3855 18.3415 49.7771 18.0904C49.1688 17.8336 48.6861 17.4374 48.3289 16.9016C47.9773 16.3659 47.8043 15.6961 47.8099 14.8925V2.31862ZM55.2041 18.2578V5.3993H58.1424V7.54239H58.2764C58.5108 6.80012 58.9126 6.22807 59.4819 5.82625C60.0567 5.41884 60.7125 5.21513 61.4491 5.21513C61.6166 5.21513 61.8035 5.2235 62.01 5.24025C62.2221 5.25141 62.3979 5.27094 62.5374 5.29885V8.08653C62.4091 8.04188 62.2054 8.00281 61.9263 7.96933C61.6529 7.93026 61.3878 7.91073 61.131 7.91073C60.5785 7.91073 60.0818 8.03072 59.6409 8.2707C59.2056 8.5051 58.8624 8.83158 58.6112 9.25015C58.3601 9.66872 58.2345 10.1515 58.2345 10.6984V18.2578H55.2041ZM69.0066 18.5089C67.7174 18.5089 66.604 18.2411 65.6664 17.7053C64.7344 17.1639 64.0172 16.3993 63.515 15.4115C63.0127 14.4181 62.7615 13.2489 62.7615 11.9039C62.7615 10.5812 63.0127 9.42037 63.515 8.42138C64.0228 7.41681 64.7316 6.63548 65.6413 6.07739C66.551 5.51371 67.6197 5.23187 68.8476 5.23187C69.64 5.23187 70.3879 5.36024 71.0911 5.61696C71.7999 5.8681 72.4249 6.25877 72.9663 6.78896C73.5132 7.31915 73.943 7.99444 74.2555 8.81484C74.568 9.62966 74.7243 10.6007 74.7243 11.7281V12.6573H64.1847V10.6147H71.8194C71.8138 10.0343 71.6883 9.51804 71.4427 9.06598C71.1971 8.60835 70.8539 8.24837 70.413 7.98607C69.9777 7.72377 69.4698 7.59261 68.8894 7.59261C68.2699 7.59261 67.7258 7.7433 67.257 8.04467C66.7882 8.34046 66.4226 8.73113 66.1603 9.21667C65.9036 9.69663 65.7725 10.224 65.7669 10.7989V12.582C65.7669 13.3298 65.9036 13.9716 66.1771 14.5074C66.4505 15.0376 66.8328 15.445 67.324 15.7296C67.8151 16.0087 68.3899 16.1482 69.0485 16.1482C69.4894 16.1482 69.8884 16.0868 70.2456 15.964C70.6028 15.8357 70.9125 15.6487 71.1748 15.4031C71.4371 15.1576 71.6352 14.8534 71.7692 14.4907L74.5987 14.8088C74.4201 15.5566 74.0797 16.2096 73.5774 16.7677C73.0807 17.3202 72.4445 17.7499 71.6687 18.0569C70.893 18.3583 70.0056 18.5089 69.0066 18.5089ZM80.281 18.5173C79.4662 18.5173 78.7323 18.3722 78.0793 18.082C77.4319 17.7862 76.9185 17.3509 76.539 16.7761C76.165 16.2012 75.9781 15.4924 75.9781 14.6497C75.9781 13.9242 76.112 13.3242 76.3799 12.8499C76.6478 12.3755 77.0133 11.996 77.4766 11.7114C77.9398 11.4267 78.4616 11.2119 79.042 11.0668C79.628 10.9161 80.2335 10.8072 80.8586 10.7403C81.612 10.6621 82.2231 10.5924 82.6919 10.531C83.1607 10.464 83.5012 10.3636 83.7133 10.2296C83.9309 10.0901 84.0397 9.87522 84.0397 9.58501V9.53478C84.0397 8.90414 83.8528 8.4158 83.4789 8.06978C83.1049 7.72377 82.5664 7.55076 81.8632 7.55076C81.1209 7.55076 80.5321 7.7126 80.0968 8.0363C79.6671 8.35999 79.3769 8.74229 79.2262 9.18318L76.3966 8.78135C76.6199 8.00002 76.9882 7.34705 77.5017 6.82244C78.0151 6.29225 78.643 5.89601 79.3852 5.6337C80.1275 5.36582 80.9479 5.23187 81.8464 5.23187C82.4659 5.23187 83.0826 5.30443 83.6965 5.44953C84.3104 5.59464 84.8713 5.83462 85.3792 6.16947C85.887 6.49875 86.2944 6.94801 86.6014 7.51727C86.9139 8.08653 87.0702 8.7981 87.0702 9.65198V18.2578H84.1569V16.4914H84.0565C83.8723 16.8486 83.6128 17.1835 83.2779 17.496C82.9487 17.803 82.5329 18.0513 82.0306 18.2411C81.5339 18.4252 80.9507 18.5173 80.281 18.5173ZM81.0679 16.2905C81.6762 16.2905 82.2036 16.1705 82.6501 15.9305C83.0966 15.685 83.4398 15.3613 83.6798 14.9595C83.9253 14.5576 84.0481 14.1195 84.0481 13.6451V12.1299C83.9532 12.2081 83.7914 12.2806 83.5626 12.3476C83.3393 12.4145 83.0882 12.4731 82.8091 12.5234C82.5301 12.5736 82.2538 12.6183 81.9804 12.6573C81.7069 12.6964 81.4697 12.7299 81.2688 12.7578C80.8168 12.8192 80.4121 12.9196 80.055 13.0591C79.6978 13.1987 79.4159 13.394 79.2094 13.6451C79.0029 13.8907 78.8997 14.2088 78.8997 14.5995C78.8997 15.1576 79.1034 15.5789 79.5108 15.8636C79.9182 16.1482 80.4372 16.2905 81.0679 16.2905ZM89.4102 18.2578V5.3993H92.3067V7.58424H92.4574C92.7253 6.84756 93.1689 6.27272 93.7884 5.85973C94.4079 5.44116 95.1474 5.23187 96.0069 5.23187C96.8775 5.23187 97.6114 5.44395 98.2085 5.8681C98.8113 6.28667 99.2354 6.85872 99.481 7.58424H99.6149C99.8996 6.86988 100.38 6.30063 101.055 5.87647C101.736 5.44674 102.542 5.23187 103.474 5.23187C104.657 5.23187 105.623 5.6058 106.371 6.35364C107.119 7.10149 107.492 8.19257 107.492 9.62687V18.2578H104.454V10.0957C104.454 9.29759 104.242 8.71438 103.817 8.34604C103.393 7.97212 102.874 7.78516 102.26 7.78516C101.529 7.78516 100.957 8.01397 100.544 8.47161C100.137 8.92367 99.933 9.51246 99.933 10.238V18.2578H96.9612V9.9701C96.9612 9.30596 96.7603 8.77577 96.3585 8.37953C95.9622 7.98328 95.4432 7.78516 94.8014 7.78516C94.3661 7.78516 93.9698 7.89677 93.6126 8.12001C93.2554 8.33767 92.9708 8.64741 92.7587 9.04924C92.5467 9.44549 92.4406 9.90871 92.4406 10.4389V18.2578H89.4102ZM109.307 18.2578L112.153 1.11314H122.433L122.132 2.95485H113.928L112.957 8.74787H120.391L120.089 10.5896H112.656L111.383 18.2578H109.307ZM130.336 13.0005L131.609 5.3993H133.584L131.441 18.2578H129.466L129.834 16.0812H129.7C129.298 16.7342 128.737 17.2895 128.017 17.7471C127.297 18.1992 126.452 18.4252 125.481 18.4252C124.677 18.4252 123.991 18.2494 123.421 17.8978C122.858 17.5406 122.456 17.0049 122.216 16.2905C121.982 15.5706 121.954 14.6637 122.132 13.5698L123.505 5.3993H125.481L124.141 13.4359C123.991 14.3735 124.133 15.1213 124.568 15.6794C125.004 16.2375 125.632 16.5165 126.452 16.5165C126.943 16.5165 127.462 16.391 128.009 16.1398C128.562 15.8887 129.053 15.5036 129.482 14.9846C129.918 14.4655 130.202 13.8042 130.336 13.0005ZM142.088 5.3993L141.82 7.07359H135.156L135.424 5.3993H142.088ZM137.869 2.31862H139.844L137.802 14.5744C137.712 15.1325 137.726 15.551 137.844 15.8301C137.966 16.1036 138.15 16.2877 138.396 16.3826C138.647 16.4719 138.918 16.5165 139.208 16.5165C139.426 16.5165 139.604 16.5054 139.744 16.4831C139.883 16.4552 139.995 16.4328 140.079 16.4161L140.213 18.1908C140.062 18.2411 139.858 18.2913 139.601 18.3415C139.35 18.3973 139.041 18.4252 138.672 18.4252C138.114 18.4252 137.59 18.3052 137.098 18.0653C136.607 17.8253 136.231 17.4597 135.968 16.9686C135.706 16.4775 135.636 15.858 135.759 15.1101L137.869 2.31862ZM142.754 18.2578L145.6 1.11314H147.575L146.537 7.44193H146.705C146.883 7.21869 147.132 6.93406 147.45 6.58804C147.768 6.23644 148.195 5.92391 148.731 5.65045C149.266 5.3714 149.953 5.23187 150.79 5.23187C151.873 5.23187 152.78 5.50255 153.511 6.0439C154.247 6.58525 154.764 7.35263 155.059 8.34604C155.361 9.33945 155.4 10.5114 155.177 11.862C154.953 13.2238 154.527 14.4042 153.896 15.4031C153.271 16.3966 152.501 17.1667 151.585 17.7137C150.676 18.255 149.685 18.5257 148.614 18.5257C147.788 18.5257 147.149 18.3889 146.696 18.1155C146.25 17.8364 145.921 17.5211 145.709 17.1695C145.502 16.8123 145.343 16.5165 145.231 16.2821H144.997L144.662 18.2578H142.754ZM145.767 11.8285C145.611 12.7996 145.614 13.6563 145.776 14.3986C145.937 15.1353 146.258 15.7129 146.738 16.1315C147.218 16.5444 147.854 16.7509 148.647 16.7509C149.473 16.7509 150.198 16.5333 150.824 16.098C151.449 15.6571 151.962 15.0655 152.364 14.3232C152.766 13.5754 153.045 12.7438 153.201 11.8285C153.346 10.9244 153.341 10.1096 153.184 9.3841C153.034 8.65299 152.715 8.07537 152.23 7.65121C151.75 7.22148 151.091 7.00661 150.254 7.00661C149.451 7.00661 148.739 7.21032 148.12 7.61773C147.506 8.01956 146.998 8.58323 146.596 9.30875C146.2 10.0287 145.923 10.8686 145.767 11.8285ZM161.727 18.5257C160.544 18.5257 159.554 18.2438 158.756 17.6802C157.958 17.1165 157.394 16.3268 157.065 15.3111C156.741 14.2953 156.688 13.1122 156.906 11.7616C157.118 10.4445 157.539 9.29759 158.17 8.32093C158.806 7.33868 159.596 6.57967 160.539 6.0439C161.488 5.50255 162.531 5.23187 163.67 5.23187C164.853 5.23187 165.841 5.5165 166.633 6.08576C167.431 6.64943 167.995 7.44193 168.324 8.46324C168.653 9.47897 168.709 10.6677 168.492 12.0295C168.28 13.3354 167.853 14.4767 167.211 15.4534C166.575 16.4245 165.785 17.1807 164.842 17.722C163.904 18.2578 162.866 18.5257 161.727 18.5257ZM161.761 16.7509C162.665 16.7509 163.449 16.5193 164.113 16.0561C164.783 15.5929 165.324 14.9818 165.737 14.2228C166.156 13.4638 166.438 12.6434 166.583 11.7616C166.717 10.9244 166.711 10.1459 166.566 9.42595C166.421 8.70043 166.111 8.11722 165.637 7.67633C165.163 7.22985 164.496 7.00661 163.636 7.00661C162.732 7.00661 161.942 7.24101 161.267 7.70981C160.597 8.17861 160.056 8.79531 159.643 9.5599C159.23 10.3245 158.954 11.1477 158.814 12.0295C158.68 12.8666 158.683 13.6451 158.823 14.3651C158.968 15.0794 159.277 15.6571 159.752 16.098C160.232 16.5333 160.902 16.7509 161.761 16.7509ZM174.601 1.11314L171.755 18.2578H169.779L172.625 1.11314H174.601Z" fill="white"/>
</svg>
